<svg xmlns="http://www.w3.org/2000/svg" xmlns:xlink="http://www.w3.org/1999/xlink" width="310" height="112" viewBox="0 0 310 112" fill="none"><defs><rect id="path_0" x="0" y="0" width="310" height="112" /><rect id="path_1" x="0" y="0" width="10" height="10" /></defs><g opacity="1" transform="translate(0 0)  rotate(0 155 56)"><rect fill="#263238" opacity="1" transform="translate(0 0)  rotate(0 155 56)" x="0" y="0" width="310" height="112" rx="8" /><mask id="bg-mask-0" fill="white"><use xlink:href="#path_0"></use></mask><g mask="url(#bg-mask-0)" ><path id="矩形 1" fill-rule="evenodd" style="fill:#263238" transform="translate(6 4)  rotate(0 148.5 31.5)" opacity="1" d="M0,63L297,63L297,0L0,0L0,63Z " /><g opacity="1" transform="translate(46 29)  rotate(0 120.5 12)"><text><tspan x="0" y="12.6" font-size="12" line-height="0" fill="#00BAAD" opacity="1" font-family="AlibabaPuHuiTi-Regular" letter-spacing="0"  ></tspan><tspan x="0" y="12.6" font-size="12" line-height="0" fill="#00BAAD" opacity="1" font-family="AlibabaPuHuiTi-Regular" letter-spacing="0"  > </tspan><tspan x="3.084" y="12.6" font-size="12" line-height="0" fill="#00BAAD" opacity="1" font-family="AlibabaPuHuiTi-Regular" letter-spacing="0"  > Compiled</tspan><tspan x="60.647999999999996" y="12.6" font-size="12" line-height="0" fill="#00BAAD" opacity="1" font-family="AlibabaPuHuiTi-Regular" letter-spacing="0"  > successfully</tspan><tspan x="131.928" y="12.6" font-size="12" line-height="0" fill="#00BAAD" opacity="1" font-family="AlibabaPuHuiTi-Regular" letter-spacing="0"  > in</tspan><tspan x="145.644" y="12.6" font-size="12" line-height="0" fill="#00BAAD" opacity="1" font-family="AlibabaPuHuiTi-Regular" letter-spacing="0"  > 382ms</tspan><tspan x="186.228" y="12.6" font-size="12" line-height="0" fill="#00BAAD" opacity="1" font-family="AlibabaPuHuiTi-Regular" letter-spacing="0"  > </tspan><tspan x="189.312" y="12.6" font-size="12" line-height="0" fill="#00BAAD" opacity="1" font-family="AlibabaPuHuiTi-Regular" letter-spacing="0"  > </tspan><tspan x="192.39600000000002" y="12.6" font-size="12" line-height="0" fill="#00BAAD" opacity="1" font-family="AlibabaPuHuiTi-Regular" letter-spacing="0"  > </tspan><tspan x="195.48000000000002" y="12.6" font-size="12" line-height="0" fill="#00BAAD" opacity="1" font-family="AlibabaPuHuiTi-Regular" letter-spacing="0"  > </tspan><tspan x="198.56400000000002" y="12.6" font-size="12" line-height="0" fill="#00BAAD" opacity="1" font-family="AlibabaPuHuiTi-Regular" letter-spacing="0" > </tspan></text></g><g opacity="1" transform="translate(6 4)  rotate(0 20 8)"><path id="矩形 2" fill-rule="evenodd" style="fill:#263238" transform="translate(0 0)  rotate(0 20 7.5)" opacity="1" d="M0,15L40,15L40,0L0,0L0,15Z " /><g opacity="1" transform="translate(12 2)  rotate(0 10 7)"><text><tspan x="0" y="10.5" font-size="10" line-height="0" fill="#FFFFFF" opacity="1" font-family="AlibabaPuHuiTi-Regular" letter-spacing="0" >问题</tspan></text></g></g><g opacity="1" transform="translate(202 3)  rotate(0 20 8)"><path id="矩形 2" fill-rule="evenodd" style="fill:#263238" transform="translate(0 0)  rotate(0 20 7.5)" opacity="1" d="M0,15L40,15L40,0L0,0L0,15Z " /><g opacity="1" transform="translate(12 2)  rotate(0 10 7)"><text><tspan x="0" y="10.5" font-size="10" line-height="0" fill="#FFFFFF" opacity="1" font-family="AlibabaPuHuiTi-Regular" letter-spacing="0" >注释</tspan></text></g></g><g opacity="1" transform="translate(160 3)  rotate(0 21 9.5005)"><path id="矩形 2" fill-rule="evenodd" style="fill:#263238" transform="translate(0 0)  rotate(0 20 7.5)" opacity="1" d="M0,15L40,15L40,0L0,0L0,15Z " /><path id="直线 1"  style="fill:#00BAAD" transform="translate(2 19)  rotate(0 20 0.0005)" opacity="1" d="" /><path  id="直线 1" style="stroke:#00BAAD; stroke-width:1; stroke-opacity:1; stroke-dasharray:0 0" transform="translate(2 19)  rotate(0 20 0.0005)" d="M0,0L40,0 " /><g opacity="1" transform="translate(12 2)  rotate(0 10 7)"><text><tspan x="0" y="10.5" font-size="10" line-height="0" fill="#FFFFFF" opacity="1" font-family="AlibabaPuHuiTi-Regular" letter-spacing="0" >终端</tspan></text></g></g><g opacity="1" transform="translate(102 4)  rotate(0 25 8)"><path id="矩形 2" fill-rule="evenodd" style="fill:#263238" transform="translate(0 0)  rotate(0 20 7.5)" opacity="1" d="M0,15L40,15L40,0L0,0L0,15Z " /><g opacity="1" transform="translate(0 2)  rotate(0 25 7)"><text><tspan x="0" y="10.5" font-size="10" line-height="0" fill="#FFFFFF" opacity="1" font-family="AlibabaPuHuiTi-Regular" letter-spacing="0" >调试控制台</tspan></text></g></g><g opacity="1" transform="translate(54 4)  rotate(0 20 8)"><path id="矩形 2" fill-rule="evenodd" style="fill:#263238" transform="translate(0 0)  rotate(0 20 7.5)" opacity="1" d="M0,15L40,15L40,0L0,0L0,15Z " /><g opacity="1" transform="translate(12 2)  rotate(0 10 7)"><text><tspan x="0" y="10.5" font-size="10" line-height="0" fill="#FFFFFF" opacity="1" font-family="AlibabaPuHuiTi-Regular" letter-spacing="0" >输出</tspan></text></g></g><g opacity="1" transform="translate(10 62)  rotate(0 100 10.5)"><text><tspan x="0" y="12.6" font-size="12" line-height="0" fill="#A6A6A6" opacity="1" font-family="AlibabaPuHuiTi-Regular" letter-spacing="0"  >2023年1月1日00:00:13</tspan><tspan x="127.29600000000005" y="12.6" font-size="12" line-height="0" fill="#A6A6A6" opacity="1" font-family="AlibabaPuHuiTi-Regular" letter-spacing="0"  > :</tspan><tspan x="134.91600000000005" y="12.6" font-size="12" line-height="0" fill="#A6A6A6" opacity="1" font-family="AlibabaPuHuiTi-Regular" letter-spacing="0"  > </tspan><tspan x="138.00000000000006" y="12.6" font-size="12" line-height="0" fill="#A6A6A6" opacity="1" font-family="AlibabaPuHuiTi-Regular" letter-spacing="0" > false</tspan></text></g><g opacity="1" transform="translate(290 7)  rotate(0 5 5)"><mask id="bg-mask-1" fill="white"><use xlink:href="#path_1"></use></mask><g mask="url(#bg-mask-1)" ><g opacity="1" transform="translate(0.1562633304249904 0.07873459866956178)  rotate(0 4.864932496607305 4.903164688793264)"><path id="路径 1" fill-rule="evenodd" style="fill:#FF0000" transform="translate(0 0.9839026282087743)  rotate(0 4.864932496607305 4.411213374688877)" opacity="1" d="M6.99,0.66C6.99,0.82 7.16,0.99 7.3,1.12C8.13,1.88 8.58,2.81 8.59,3.48C8.59,6.27 6.46,8.07 4.22,7.62C2.71,7.32 1.68,6.42 1.28,4.94C0.88,3.45 1.3,2.15 2.46,1.11C2.81,0.79 2.87,0.49 2.63,0.21C2.4,-0.06 2.06,-0.05 1.71,0.24C0.21,1.49 -0.39,3.65 0.26,5.53C0.91,7.43 2.72,8.78 4.69,8.82C7.85,8.89 10.21,6.15 9.64,3.03C9.43,1.88 8.85,0.93 7.94,0.18C7.72,0 7.45,-0.08 7.24,0.11C7.09,0.24 6.98,0.48 6.99,0.66Z " /><path id="路径 2" fill-rule="evenodd" style="fill:#FF0000" transform="translate(4.101205280123947 0)  rotate(0 0.766954188980274 2.6588455052319646)" opacity="1" d="M0,4.44C0.01,4.96 0.32,5.32 0.77,5.32C1.2,5.31 1.52,4.97 1.53,4.47C1.54,3.26 1.54,2.05 1.53,0.84C1.52,0.34 1.2,0 0.76,0C0.32,0 0.01,0.34 0,0.85C0,1.44 0,2.03 0,2.62C0,3.23 0,3.83 0,4.44Z " /></g></g></g><g opacity="1" transform="translate(10 29)  rotate(0 18 8.5)"><text><tspan x="0" y="12.6" font-size="12" line-height="0" fill="#808080" opacity="1" font-family="AlibabaPuHuiTi-Regular" letter-spacing="0"  >DONE</tspan><tspan x="32.82" y="12.6" font-size="12" line-height="0" fill="#808080" opacity="1" font-family="AlibabaPuHuiTi-Regular" letter-spacing="0" > </tspan></text></g></g></g></svg>